<?xml version="1.0" standalone="no"?><!DOCTYPE svg PUBLIC "-//W3C//DTD SVG 1.1//EN" "http://www.w3.org/Graphics/SVG/1.1/DTD/svg11.dtd"><svg t="1668521198187" class="icon" viewBox="0 0 1170 1024" version="1.1" xmlns="http://www.w3.org/2000/svg" p-id="3301" xmlns:xlink="http://www.w3.org/1999/xlink" width="228.515625" height="200"><path d="M588.702476 855.868952c-130.194286 0-230.302476-18.041905-298.422857-54.125714-74.118095-39.984762-90.112-92.062476-90.112-128.146286V389.217524l-86.113524-19.992381a115.858286 115.858286 0 0 1-62.073905-40.082286 110.201905 110.201905 0 0 1-24.039619-70.119619c0-25.990095 7.996952-50.029714 24.039619-70.070857 15.993905-19.992381 38.034286-34.03581 62.073905-40.033524l450.56-104.155428c8.045714-1.999238 16.091429-1.999238 24.088381-1.999239 7.996952 0 15.993905 0 24.039619 1.950477l450.56 104.20419c24.088381 5.997714 46.08 19.992381 62.122667 40.033524 15.993905 19.992381 24.039619 44.080762 24.039619 70.119619a110.201905 110.201905 0 0 1-24.039619 70.070857c-16.042667 19.992381-38.034286 34.03581-62.073905 40.033524l-86.113524 20.041143v286.378666c0 36.08381-16.042667 88.161524-90.160762 128.195048-68.071619 34.03581-168.228571 52.077714-298.422857 52.077714zM284.281905 675.59619c0 14.043429 22.040381 38.034286 74.118095 60.074667 42.032762 16.091429 116.150857 36.08381 230.302476 36.08381 116.150857 0 190.268952-19.992381 230.302476-36.08381 50.078476-19.992381 74.118095-44.032 74.118096-60.074667V407.259429l-278.430477 64.073142a97.52381 97.52381 0 0 1-23.990857 1.999239c-7.996952 0-16.042667 0-24.039619-1.950477L286.232381 407.210667v268.336762H284.281905z m312.417524-284.379428l450.608761-106.154667a27.696762 27.696762 0 0 0 22.040381-26.038857 25.795048 25.795048 0 0 0-22.040381-25.990095l-450.608761-104.155429h-13.994667L130.048 233.033143a28.623238 28.623238 0 0 0-28.038095 28.038095c0 13.994667 12.04419 28.038095 28.038095 28.038095l450.608762 104.106667h16.042667v-1.950476z m476.647619 396.531809a41.057524 41.057524 0 0 1-42.032762-42.032761V433.298286c0-24.039619 18.041905-42.081524 42.032762-42.081524 24.039619 0 42.081524 18.041905 42.081523 42.081524v312.417524c0 22.040381-18.041905 42.032762-42.081523 42.032761z m0 26.038858c38.034286 0 70.119619 102.15619 70.119619 138.191238 0 38.034286-32.085333 70.119619-70.119619 70.119619a69.680762 69.680762 0 0 1-70.070858-70.119619c0-38.034286 32.036571-138.191238 70.070858-138.191238z" fill="#ffffff" p-id="3302"></path></svg>